<svg width="40" height="40" viewBox="0 0 40 40" fill="none" xmlns="http://www.w3.org/2000/svg">
<path d="M13.3199 11.5245C12.6614 11.7806 12.1045 12.1222 11.5476 12.6792C10.9906 13.2322 10.6492 13.7933 10.3931 14.4479C10.1451 15.0821 9.97835 15.8099 9.92965 16.8752C9.88085 17.9404 9.86865 18.282 9.86865 20.998C9.86865 23.714 9.88085 24.0555 9.92965 25.1208C9.97835 26.186 10.1492 26.9138 10.3931 27.5481C10.6492 28.2067 10.9906 28.7638 11.5476 29.3208C12.1045 29.8778 12.6614 30.2194 13.3199 30.4755C13.9541 30.7235 14.6817 30.8902 15.7467 30.939C16.8118 30.9878 17.1532 31 19.8687 31C22.5841 31 22.9256 30.9878 23.9906 30.939C25.0557 30.8902 25.7833 30.7195 26.4175 30.4755C27.076 30.2194 27.6329 29.8778 28.1898 29.3208C28.7467 28.7638 29.0882 28.2067 29.3443 27.5481C29.5923 26.9138 29.7589 26.186 29.8077 25.1208C29.8565 24.0555 29.8687 23.714 29.8687 20.998C29.8687 18.282 29.8565 17.9404 29.8077 16.8752C29.7589 15.8099 29.5882 15.0821 29.3443 14.4479C29.0882 13.7933 28.7467 13.2322 28.1939 12.6792C27.637 12.1222 27.0801 11.7806 26.4215 11.5245C25.7874 11.2765 25.0597 11.1098 23.9947 11.061C22.9297 11.0122 22.5882 11 19.8728 11C17.1573 11 16.8158 11.0122 15.7508 11.061C14.6817 11.1057 13.9541 11.2765 13.3199 11.5245ZM23.9093 12.8581C24.8849 12.9028 25.4134 13.0655 25.7671 13.2037C26.2345 13.3867 26.5679 13.6022 26.9175 13.9518C27.2671 14.3015 27.4825 14.6349 27.6654 15.1025C27.8036 15.4562 27.9663 15.9848 28.011 16.9606C28.0597 18.0136 28.0679 18.3308 28.0679 21.002C28.0679 23.6733 28.0557 23.9904 28.011 25.0435C27.9663 26.0193 27.8036 26.5479 27.6654 26.9016C27.4825 27.3692 27.2671 27.7026 26.9175 28.0522C26.5679 28.4019 26.2345 28.6174 25.7671 28.8004C25.4134 28.9386 24.8849 29.1012 23.9093 29.146C22.8565 29.1948 22.5394 29.2029 19.8687 29.2029C17.198 29.2029 16.8809 29.1907 15.828 29.146C14.8524 29.1012 14.324 28.9386 13.9703 28.8004C13.5028 28.6174 13.1695 28.4019 12.8199 28.0522C12.4703 27.7026 12.2549 27.3692 12.0719 26.9016C11.9337 26.5479 11.7711 26.0193 11.7264 25.0435C11.6776 23.9904 11.6695 23.6733 11.6695 21.002C11.6695 18.3308 11.6817 18.0136 11.7264 16.9606C11.7711 15.9848 11.9337 15.4562 12.0719 15.1025C12.2549 14.6349 12.4703 14.3015 12.8199 13.9518C13.1695 13.6022 13.5028 13.3867 13.9703 13.2037C14.324 13.0655 14.8524 12.9028 15.828 12.8581C16.8809 12.8093 17.198 12.8012 19.8687 12.8012C22.5394 12.8012 22.8565 12.8093 23.9093 12.8581Z" fill="url(#paint0_radial)"/>
<path d="M14.7344 21.002C14.7344 23.84 17.0352 26.1372 19.8685 26.1372C22.7018 26.1372 25.0026 23.8359 25.0026 21.002C25.0026 18.1681 22.7059 15.8668 19.8685 15.8668C17.0311 15.8668 14.7344 18.164 14.7344 21.002ZM23.2018 21.002C23.2018 22.8438 21.71 24.336 19.8685 24.336C18.027 24.336 16.5352 22.8438 16.5352 21.002C16.5352 19.1602 18.027 17.668 19.8685 17.668C21.71 17.668 23.2018 19.1602 23.2018 21.002Z" fill="url(#paint1_radial)"/>
<path d="M25.2099 16.8629C25.8721 16.8629 26.409 16.3259 26.409 15.6635C26.409 15.0011 25.8721 14.4641 25.2099 14.4641C24.5476 14.4641 24.0107 15.0011 24.0107 15.6635C24.0107 16.3259 24.5476 16.8629 25.2099 16.8629Z" fill="#654C9F"/>
<defs>
<radialGradient id="paint0_radial" cx="0" cy="0" r="1" gradientUnits="userSpaceOnUse" gradientTransform="translate(11.1356 29.1267) rotate(-3.00131) scale(28.9152 28.9211)">
<stop stop-color="#FED576"/>
<stop offset="0.2634" stop-color="#F47133"/>
<stop offset="0.6091" stop-color="#BC3081"/>
<stop offset="1" stop-color="#4C63D2"/>
</radialGradient>
<radialGradient id="paint1_radial" cx="0" cy="0" r="1" gradientUnits="userSpaceOnUse" gradientTransform="translate(14.9206 25.1954) scale(14.8483 14.8514)">
<stop stop-color="#FED576"/>
<stop offset="0.2634" stop-color="#F47133"/>
<stop offset="0.6091" stop-color="#BC3081"/>
<stop offset="1" stop-color="#4C63D2"/>
</radialGradient>
</defs>
</svg>
