<svg width="40" height="40" viewBox="0 0 40 40" fill="none" xmlns="http://www.w3.org/2000/svg">
<path d="M32.2194 14.1308C31.3578 14.4922 30.432 14.7365 29.4602 14.8463C30.4522 14.2839 31.2138 13.3934 31.5724 12.3323C30.6443 12.853 29.6162 13.2312 28.522 13.4351C27.6457 12.5518 26.3972 12 25.0156 12C22.3626 12 20.2117 14.0345 20.2117 16.5441C20.2117 16.9002 20.2542 17.247 20.3361 17.5796C16.3437 17.39 12.804 15.581 10.4347 12.8318C10.0212 13.5029 9.7843 14.2835 9.7843 15.1162C9.7843 16.6927 10.6324 18.0837 11.9214 18.8985C11.1339 18.8749 10.3932 18.6706 9.74551 18.3302C9.74517 18.3491 9.74517 18.3682 9.74517 18.3873C9.74517 20.589 11.401 22.4256 13.5986 22.843C13.1955 22.9469 12.7711 23.0023 12.3329 23.0023C12.0235 23.0023 11.7225 22.9739 11.4292 22.9209C12.0404 24.7262 13.8145 26.04 15.9166 26.0767C14.2725 27.2954 12.2012 28.0219 9.95063 28.0219C9.56291 28.0219 9.1805 28.0004 8.80469 27.9585C10.9306 29.2478 13.4557 30 16.1685 30C25.0043 30 29.8362 23.0758 29.8362 17.071C29.8362 16.874 29.8316 16.678 29.8223 16.4831C30.7608 15.8424 31.5753 15.0421 32.2194 14.1308Z" fill="#55ACEE"/>
</svg>
